<svg width="59" height="58" viewBox="0 0 59 58" fill="none" xmlns="http://www.w3.org/2000/svg">
<path d="M58.5 29C58.5 44.7321 45.5243 57.5 29.5 57.5C13.4756 57.5 0.5 44.7321 0.5 29C0.5 13.2679 13.4756 0.5 29.5 0.5C45.5243 0.5 58.5 13.2679 58.5 29Z" stroke="#646465"/>
<path fill-rule="evenodd" clip-rule="evenodd" d="M30 13C20.6075 13 13 20.1117 13 28.8921C13 35.9243 17.8662 41.8639 24.6237 43.9696C25.4737 44.1087 25.7925 43.6319 25.7925 43.2148C25.7925 42.8373 25.7713 41.5858 25.7713 40.2549C21.5 40.9899 20.395 39.2815 20.055 38.3876C19.8637 37.9307 19.035 36.5202 18.3125 36.1428C17.7175 35.8448 16.8675 35.1098 18.2912 35.09C19.63 35.0701 20.5862 36.2421 20.905 36.7189C22.435 39.1226 24.8787 38.4472 25.8562 38.03C26.005 36.997 26.4513 36.3017 26.94 35.9044C23.1575 35.5071 19.205 34.1364 19.205 28.0577C19.205 26.3295 19.8637 24.8992 20.9475 23.7867C20.7775 23.3894 20.1825 21.7605 21.1175 19.5753C21.1175 19.5753 22.5413 19.1582 25.7925 21.2043C27.1525 20.8467 28.5975 20.6679 30.0425 20.6679C31.4875 20.6679 32.9325 20.8467 34.2925 21.2043C37.5438 19.1383 38.9675 19.5753 38.9675 19.5753C39.9025 21.7605 39.3075 23.3894 39.1375 23.7867C40.2212 24.8992 40.88 26.3096 40.88 28.0577C40.88 34.1563 36.9062 35.5071 33.1238 35.9044C33.74 36.401 34.2712 37.3546 34.2712 38.8445C34.2712 40.97 34.25 42.6784 34.25 43.2148C34.25 43.6319 34.5688 44.1286 35.4187 43.9696C42.1337 41.8639 47 35.9044 47 28.8921C47 20.1117 39.3925 13 30 13Z" fill="black"/>
</svg>
