<svg width="58" height="58" viewBox="0 0 58 58" fill="none" xmlns="http://www.w3.org/2000/svg">
<path d="M9.8 8.6C8.6 8.6 7.6 8.24 6.8 7.52C6.04 6.76 5.66 5.82 5.66 4.7C5.66 3.58 6.04 2.66 6.8 1.94C7.6 1.18 8.6 0.799998 9.8 0.799998C11 0.799998 11.98 1.18 12.74 1.94C13.54 2.66 13.94 3.58 13.94 4.7C13.94 5.82 13.54 6.76 12.74 7.52C11.98 8.24 11 8.6 9.8 8.6ZM0.32 57.2V51.8H2.66C4.06 51.8 5.06 51.5 5.66 50.9C6.26 50.34 6.56 49.38 6.56 48.02V14.24H12.92V48.08C12.92 51.32 12.1 53.64 10.46 55.04C8.82 56.48 6.54 57.2 3.62 57.2H0.32ZM29.593 44.72C27.073 44.72 24.993 44.3 23.353 43.46C21.713 42.62 20.493 41.52 19.693 40.16C18.893 38.76 18.493 37.24 18.493 35.6C18.493 32.72 19.613 30.44 21.853 28.76C24.093 27.08 27.293 26.24 31.453 26.24H39.253V25.7C39.253 23.38 38.613 21.64 37.333 20.48C36.093 19.32 34.473 18.74 32.473 18.74C30.713 18.74 29.173 19.18 27.853 20.06C26.573 20.9 25.793 22.16 25.513 23.84H19.153C19.353 21.68 20.073 19.84 21.313 18.32C22.593 16.76 24.193 15.58 26.113 14.78C28.073 13.94 30.213 13.52 32.533 13.52C36.693 13.52 39.913 14.62 42.193 16.82C44.473 18.98 45.613 21.94 45.613 25.7V44H40.093L39.553 38.9C38.713 40.54 37.493 41.92 35.893 43.04C34.293 44.16 32.193 44.72 29.593 44.72ZM30.853 39.56C32.573 39.56 34.013 39.16 35.173 38.36C36.373 37.52 37.293 36.42 37.933 35.06C38.613 33.7 39.033 32.2 39.193 30.56H32.113C29.593 30.56 27.793 31 26.713 31.88C25.673 32.76 25.153 33.86 25.153 35.18C25.153 36.54 25.653 37.62 26.653 38.42C27.693 39.18 29.093 39.56 30.853 39.56ZM53.7486 44.36C52.5486 44.36 51.5486 43.98 50.7486 43.22C49.9886 42.42 49.6086 41.48 49.6086 40.4C49.6086 39.28 49.9886 38.34 50.7486 37.58C51.5486 36.78 52.5486 36.38 53.7486 36.38C54.9486 36.38 55.9286 36.78 56.6886 37.58C57.4486 38.34 57.8286 39.28 57.8286 40.4C57.8286 41.48 57.4486 42.42 56.6886 43.22C55.9286 43.98 54.9486 44.36 53.7486 44.36Z" fill="#181717"/>
</svg>
