<svg width="57" height="58" viewBox="0 0 57 58" fill="none" xmlns="http://www.w3.org/2000/svg">
<path d="M22.7316 20.88C22.7313 21.4953 22.4908 22.0853 22.063 22.5201C21.6352 22.955 21.0552 23.1991 20.4505 23.1988C19.8458 23.1985 19.266 22.9538 18.8386 22.5185C18.4113 22.0832 18.1713 21.493 18.1716 20.8777C18.1719 20.2624 18.4124 19.6724 18.8402 19.2375C19.268 18.8027 19.8481 18.5585 20.4528 18.5588C21.0575 18.5591 21.6373 18.8039 22.0646 19.2392C22.492 19.6745 22.7319 20.2647 22.7316 20.88ZM22.8 24.9168H18.24V39.44H22.8V24.9168ZM30.0048 24.9168H25.4676V39.44H29.9592V31.8188C29.9592 27.5732 35.397 27.1788 35.397 31.8188V39.44H39.9V30.2412C39.9 23.084 31.8516 23.3508 29.9592 26.8656L30.0048 24.9168Z" fill="black"/>
<path d="M56.5 29C56.5 44.7483 43.9558 57.5 28.5 57.5C13.0442 57.5 0.5 44.7483 0.5 29C0.5 13.2517 13.0442 0.5 28.5 0.5C43.9558 0.5 56.5 13.2517 56.5 29Z" stroke="#6B6B6B"/>
</svg>
