<svg width="135" height="40" viewBox="0 0 135 40" fill="none" xmlns="http://www.w3.org/2000/svg">
<path d="M13.475 33.42C11.0017 33.42 8.87833 32.895 7.105 31.845C5.33167 30.7717 3.96667 29.29 3.01 27.4C2.05333 25.4867 1.575 23.2817 1.575 20.785C1.575 18.2883 2.05333 16.0833 3.01 14.17C3.96667 12.2567 5.33167 10.7633 7.105 9.69C8.87833 8.61667 11.0017 8.08 13.475 8.08C16.415 8.08 18.8183 8.815 20.685 10.285C22.575 11.7317 23.7533 13.7733 24.22 16.41H19.285C18.9817 15.08 18.3283 14.0417 17.325 13.295C16.345 12.525 15.0383 12.14 13.405 12.14C11.1417 12.14 9.36833 12.91 8.085 14.45C6.80167 15.99 6.16 18.1017 6.16 20.785C6.16 23.4683 6.80167 25.58 8.085 27.12C9.36833 28.6367 11.1417 29.395 13.405 29.395C15.0383 29.395 16.345 29.045 17.325 28.345C18.3283 27.6217 18.9817 26.63 19.285 25.37H24.22C23.7533 27.89 22.575 29.8617 20.685 31.285C18.8183 32.7083 16.415 33.42 13.475 33.42ZM35.3607 33.42C33.6807 33.42 32.164 33.035 30.8107 32.265C29.4807 31.495 28.419 30.4333 27.6257 29.08C26.8557 27.7033 26.4707 26.1167 26.4707 24.32C26.4707 22.5233 26.8673 20.9483 27.6607 19.595C28.454 18.2183 29.5157 17.145 30.8457 16.375C32.199 15.605 33.7157 15.22 35.3957 15.22C37.0523 15.22 38.5457 15.605 39.8757 16.375C41.229 17.145 42.2907 18.2183 43.0607 19.595C43.854 20.9483 44.2507 22.5233 44.2507 24.32C44.2507 26.1167 43.854 27.7033 43.0607 29.08C42.2907 30.4333 41.229 31.495 39.8757 32.265C38.5223 33.035 37.0173 33.42 35.3607 33.42ZM35.3607 29.535C36.5273 29.535 37.5423 29.1033 38.4057 28.24C39.269 27.3533 39.7007 26.0467 39.7007 24.32C39.7007 22.5933 39.269 21.2983 38.4057 20.435C37.5423 19.5483 36.539 19.105 35.3957 19.105C34.2057 19.105 33.179 19.5483 32.3157 20.435C31.4757 21.2983 31.0557 22.5933 31.0557 24.32C31.0557 26.0467 31.4757 27.3533 32.3157 28.24C33.179 29.1033 34.194 29.535 35.3607 29.535ZM55.1863 33.42C53.5529 33.42 52.0946 33.0233 50.8113 32.23C49.5279 31.4367 48.5129 30.3517 47.7663 28.975C47.0196 27.5983 46.6463 26.035 46.6463 24.285C46.6463 22.535 47.0196 20.9833 47.7663 19.63C48.5129 18.2533 49.5279 17.18 50.8113 16.41C52.0946 15.6167 53.5529 15.22 55.1863 15.22C56.4929 15.22 57.6363 15.465 58.6163 15.955C59.5963 16.445 60.3896 17.1333 60.9963 18.02V7.8H65.4763V33H61.4863L60.9963 30.515C60.4363 31.285 59.6896 31.9617 58.7563 32.545C57.8463 33.1283 56.6563 33.42 55.1863 33.42ZM56.1313 29.5C57.5779 29.5 58.7563 29.0217 59.6663 28.065C60.5996 27.085 61.0663 25.8367 61.0663 24.32C61.0663 22.8033 60.5996 21.5667 59.6663 20.61C58.7563 19.63 57.5779 19.14 56.1313 19.14C54.7079 19.14 53.5296 19.6183 52.5963 20.575C51.6629 21.5317 51.1963 22.7683 51.1963 24.285C51.1963 25.8017 51.6629 27.05 52.5963 28.03C53.5296 29.01 54.7079 29.5 56.1313 29.5ZM77.4233 33.42C75.6733 33.42 74.1216 33.0467 72.7683 32.3C71.4149 31.5533 70.3533 30.5033 69.5833 29.15C68.8133 27.7967 68.4283 26.2333 68.4283 24.46C68.4283 22.6633 68.8016 21.065 69.5483 19.665C70.3183 18.265 71.3683 17.18 72.6983 16.41C74.0516 15.6167 75.6383 15.22 77.4583 15.22C79.1616 15.22 80.6666 15.5933 81.9733 16.34C83.2799 17.0867 84.2949 18.1133 85.0183 19.42C85.7649 20.7033 86.1383 22.1383 86.1383 23.725C86.1383 23.9817 86.1266 24.25 86.1033 24.53C86.1033 24.81 86.0916 25.1017 86.0683 25.405H72.8733C72.9666 26.7583 73.4333 27.82 74.2733 28.59C75.1366 29.36 76.1749 29.745 77.3883 29.745C78.2983 29.745 79.0566 29.5467 79.6633 29.15C80.2933 28.73 80.7599 28.1933 81.0633 27.54H85.6133C85.2866 28.6367 84.7383 29.64 83.9683 30.55C83.2216 31.4367 82.2883 32.1367 81.1683 32.65C80.0716 33.1633 78.8233 33.42 77.4233 33.42ZM77.4583 18.86C76.3616 18.86 75.3933 19.175 74.5533 19.805C73.7133 20.4117 73.1766 21.345 72.9433 22.605H81.5883C81.5183 21.4617 81.0983 20.5517 80.3283 19.875C79.5583 19.1983 78.6016 18.86 77.4583 18.86Z" fill="black"/>
<path fill-rule="evenodd" clip-rule="evenodd" d="M116.5 3C106.279 3 98 11.4882 98 21.9679C98 30.3612 103.296 37.4505 110.649 39.9638C111.574 40.1297 111.921 39.5607 111.921 39.0628C111.921 38.6123 111.898 37.1186 111.898 35.53C107.25 36.4073 106.047 34.3682 105.677 33.3013C105.469 32.7559 104.568 31.0725 103.781 30.6221C103.134 30.2664 102.209 29.3891 103.758 29.3654C105.215 29.3417 106.256 30.7406 106.602 31.3096C108.267 34.1785 110.927 33.3724 111.991 32.8745C112.153 31.6416 112.638 30.8117 113.17 30.3375C109.054 29.8633 104.753 28.2274 104.753 20.9721C104.753 18.9094 105.469 17.2022 106.649 15.8745C106.464 15.4003 105.816 13.4561 106.834 10.848C106.834 10.848 108.383 10.3501 111.921 12.7922C113.401 12.3654 114.974 12.152 116.546 12.152C118.119 12.152 119.691 12.3654 121.171 12.7922C124.709 10.3264 126.259 10.848 126.259 10.848C127.276 13.4561 126.629 15.4003 126.444 15.8745C127.623 17.2022 128.34 18.8856 128.34 20.9721C128.34 28.2511 124.016 29.8633 119.899 30.3375C120.57 30.9303 121.148 32.0684 121.148 33.8466C121.148 36.3836 121.125 38.4226 121.125 39.0628C121.125 39.5607 121.472 40.1534 122.397 39.9638C129.704 37.4505 135 30.3375 135 21.9679C135 11.4882 126.721 3 116.5 3Z" fill="black"/>
</svg>
