<svg width="217" height="39" viewBox="0 0 217 39" fill="none" xmlns="http://www.w3.org/2000/svg">
<path d="M176.093 6.625V5.625H175.093V6.625H176.093ZM190.167 22.7341C190.55 23.1326 191.183 23.1456 191.581 22.7632C191.979 22.3807 191.993 21.7477 191.61 21.3492L190.167 22.7341ZM177.093 18.9583V6.625H175.093V18.9583H177.093ZM176.093 7.625H187.93V5.625H176.093V7.625ZM175.372 7.31742L190.167 22.7341L191.61 21.3492L176.815 5.93258L175.372 7.31742Z" fill="#33363F"/>
<path d="M177.573 25.125V26.8334C177.573 29.6618 177.573 31.076 178.451 31.9547C179.33 32.8334 180.744 32.8334 183.573 32.8334H195.245C198.074 32.8334 199.488 32.8334 200.367 31.9547C201.245 31.076 201.245 29.6618 201.245 26.8334V14.1667C201.245 11.3383 201.245 9.92405 200.367 9.04537C199.488 8.16669 198.074 8.16669 195.245 8.16669H193.848" stroke="#33363F" stroke-width="2" stroke-linecap="round"/>
<path d="M2.38 33V8.5H6.86V29.5H17.71V33H2.38ZM22.9173 12.945C22.1007 12.945 21.424 12.7 20.8873 12.21C20.374 11.72 20.1173 11.1017 20.1173 10.355C20.1173 9.60833 20.374 9.00167 20.8873 8.535C21.424 8.045 22.1007 7.8 22.9173 7.8C23.734 7.8 24.399 8.045 24.9123 8.535C25.449 9.00167 25.7173 9.60833 25.7173 10.355C25.7173 11.1017 25.449 11.72 24.9123 12.21C24.399 12.7 23.734 12.945 22.9173 12.945ZM20.6773 33V15.64H25.1573V33H20.6773ZM33.4734 33L27.1034 15.64H31.7934L36.2034 28.765L40.6134 15.64H45.3034L38.8984 33H33.4734ZM54.6596 33.42C52.9096 33.42 51.3579 33.0467 50.0046 32.3C48.6513 31.5533 47.5896 30.5033 46.8196 29.15C46.0496 27.7967 45.6646 26.2333 45.6646 24.46C45.6646 22.6633 46.0379 21.065 46.7846 19.665C47.5546 18.265 48.6046 17.18 49.9346 16.41C51.2879 15.6167 52.8746 15.22 54.6946 15.22C56.3979 15.22 57.9029 15.5933 59.2096 16.34C60.5163 17.0867 61.5313 18.1133 62.2546 19.42C63.0013 20.7033 63.3746 22.1383 63.3746 23.725C63.3746 23.9817 63.3629 24.25 63.3396 24.53C63.3396 24.81 63.3279 25.1017 63.3046 25.405H50.1096C50.2029 26.7583 50.6696 27.82 51.5096 28.59C52.3729 29.36 53.4113 29.745 54.6246 29.745C55.5346 29.745 56.2929 29.5467 56.8996 29.15C57.5296 28.73 57.9963 28.1933 58.2996 27.54H62.8496C62.5229 28.6367 61.9746 29.64 61.2046 30.55C60.4579 31.4367 59.5246 32.1367 58.4046 32.65C57.3079 33.1633 56.0596 33.42 54.6596 33.42ZM54.6946 18.86C53.5979 18.86 52.6296 19.175 51.7896 19.805C50.9496 20.4117 50.4129 21.345 50.1796 22.605H58.8246C58.7546 21.4617 58.3346 20.5517 57.5646 19.875C56.7946 19.1983 55.8379 18.86 54.6946 18.86ZM73.4874 33V8.5H81.8524C84.7224 8.5 87.0791 9.01333 88.9224 10.04C90.7891 11.0433 92.1658 12.4667 93.0524 14.31C93.9624 16.13 94.4174 18.2767 94.4174 20.75C94.4174 23.2233 93.9624 25.3817 93.0524 27.225C92.1658 29.045 90.7891 30.4683 88.9224 31.495C87.0791 32.4983 84.7224 33 81.8524 33H73.4874ZM77.9674 29.15H81.6424C83.6958 29.15 85.3174 28.8233 86.5074 28.17C87.6974 27.4933 88.5491 26.5367 89.0624 25.3C89.5758 24.04 89.8324 22.5233 89.8324 20.75C89.8324 19 89.5758 17.495 89.0624 16.235C88.5491 14.975 87.6974 14.0067 86.5074 13.33C85.3174 12.6533 83.6958 12.315 81.6424 12.315H77.9674V29.15ZM105.65 33.42C103.9 33.42 102.349 33.0467 100.995 32.3C99.6419 31.5533 98.5802 30.5033 97.8102 29.15C97.0402 27.7967 96.6552 26.2333 96.6552 24.46C96.6552 22.6633 97.0286 21.065 97.7752 19.665C98.5452 18.265 99.5952 17.18 100.925 16.41C102.279 15.6167 103.865 15.22 105.685 15.22C107.389 15.22 108.894 15.5933 110.2 16.34C111.507 17.0867 112.522 18.1133 113.245 19.42C113.992 20.7033 114.365 22.1383 114.365 23.725C114.365 23.9817 114.354 24.25 114.33 24.53C114.33 24.81 114.319 25.1017 114.295 25.405H101.1C101.194 26.7583 101.66 27.82 102.5 28.59C103.364 29.36 104.402 29.745 105.615 29.745C106.525 29.745 107.284 29.5467 107.89 29.15C108.52 28.73 108.987 28.1933 109.29 27.54H113.84C113.514 28.6367 112.965 29.64 112.195 30.55C111.449 31.4367 110.515 32.1367 109.395 32.65C108.299 33.1633 107.05 33.42 105.65 33.42ZM105.685 18.86C104.589 18.86 103.62 19.175 102.78 19.805C101.94 20.4117 101.404 21.345 101.17 22.605H109.815C109.745 21.4617 109.325 20.5517 108.555 19.875C107.785 19.1983 106.829 18.86 105.685 18.86ZM117.083 33V15.64H121.038L121.423 17.985C121.983 17.145 122.718 16.48 123.628 15.99C124.562 15.4767 125.635 15.22 126.848 15.22C129.532 15.22 131.433 16.2583 132.553 18.335C133.183 17.3783 134.023 16.62 135.073 16.06C136.147 15.5 137.313 15.22 138.573 15.22C140.837 15.22 142.575 15.8967 143.788 17.25C145.002 18.6033 145.608 20.5867 145.608 23.2V33H141.128V23.62C141.128 22.1267 140.837 20.9833 140.253 20.19C139.693 19.3967 138.818 19 137.628 19C136.415 19 135.435 19.4433 134.688 20.33C133.965 21.2167 133.603 22.4533 133.603 24.04V33H129.123V23.62C129.123 22.1267 128.832 20.9833 128.248 20.19C127.665 19.3967 126.767 19 125.553 19C124.363 19 123.395 19.4433 122.648 20.33C121.925 21.2167 121.563 22.4533 121.563 24.04V33H117.083ZM157.142 33.42C155.462 33.42 153.945 33.035 152.592 32.265C151.262 31.495 150.2 30.4333 149.407 29.08C148.637 27.7033 148.252 26.1167 148.252 24.32C148.252 22.5233 148.648 20.9483 149.442 19.595C150.235 18.2183 151.297 17.145 152.627 16.375C153.98 15.605 155.497 15.22 157.177 15.22C158.833 15.22 160.327 15.605 161.657 16.375C163.01 17.145 164.072 18.2183 164.842 19.595C165.635 20.9483 166.032 22.5233 166.032 24.32C166.032 26.1167 165.635 27.7033 164.842 29.08C164.072 30.4333 163.01 31.495 161.657 32.265C160.303 33.035 158.798 33.42 157.142 33.42ZM157.142 29.535C158.308 29.535 159.323 29.1033 160.187 28.24C161.05 27.3533 161.482 26.0467 161.482 24.32C161.482 22.5933 161.05 21.2983 160.187 20.435C159.323 19.5483 158.32 19.105 157.177 19.105C155.987 19.105 154.96 19.5483 154.097 20.435C153.257 21.2983 152.837 22.5933 152.837 24.32C152.837 26.0467 153.257 27.3533 154.097 28.24C154.96 29.1033 155.975 29.535 157.142 29.535Z" fill="black"/>
</svg>
