<svg xmlns="http://www.w3.org/2000/svg" version="1.1" xmlns:xlink="http://www.w3.org/1999/xlink" xmlns:svgjs="http://svgjs.dev/svgjs" width="1500" height="1500" viewBox="0 0 1500 1500"><rect width="1500" height="1500" fill="#3e373d"></rect><g transform="matrix(0.6666666666666666,0,0,0.6666666666666666,249.78425655976667,249.78425655976673)"><svg viewBox="0 0 343 343" data-background-color="#3e373d" preserveAspectRatio="xMidYMid meet" height="1500" width="1500" xmlns="http://www.w3.org/2000/svg" xmlns:xlink="http://www.w3.org/1999/xlink"><g id="tight-bounds" transform="matrix(1,0,0,1,0.0740000000000407,0.07400000000001228)"><svg viewBox="0 0 342.85155851775386 342.85155851775386" height="342.85155851775386" width="342.85155851775386"><g><svg></svg></g><g><svg viewBox="0 0 342.85155851775386 342.85155851775386" height="342.85155851775386" width="342.85155851775386"><g><path d="M0 171.426c0-94.676 76.75-171.426 171.426-171.426 94.676 0 171.426 76.75 171.426 171.426 0 94.676-76.75 171.426-171.426 171.426-94.676 0-171.426-76.75-171.426-171.426zM171.426 337.889c91.935 0 166.463-74.528 166.463-166.463 0-91.935-74.528-166.463-166.463-166.463-91.935 0-166.463 74.528-166.463 166.463 0 91.935 74.528 166.463 166.463 166.463z" data-fill-palette-color="tertiary" fill="#ddd8c3" stroke="transparent"></path><ellipse rx="164.56874808852186" ry="164.56874808852186" cx="171.42577925887693" cy="171.42577925887693" fill="#ddd8c3" stroke="transparent" stroke-width="0" fill-opacity="1" data-fill-palette-color="tertiary"></ellipse></g><g transform="matrix(1,0,0,1,64.84655864529837,90.41492874363139)"><svg viewBox="0 0 213.1584412271571 162.02170103049107" height="162.02170103049107" width="213.1584412271571"><g><svg viewBox="0 0 214.22423343329288 162.83180953564352" height="162.02170103049107" width="213.1584412271571"><g><rect width="214.22423343329288" height="4.987323263624539" x="0" y="89.48520435109391" fill="#ddd8c3" opacity="1" stroke-width="0" stroke="transparent" fill-opacity="1" class="rect-qz-0" data-fill-palette-color="primary" rx="1%" id="qz-0" data-palette-color="#ddd8c3"></rect></g><g transform="matrix(1,0,0,1,0.532896103067884,107.52834767656279)"><svg viewBox="0 0 213.1584412271571 55.30346185908073" height="55.30346185908073" width="213.1584412271571"><g id="textblocktransform"><svg viewBox="0 0 213.1584412271571 55.30346185908073" height="55.30346185908073" width="213.1584412271571" id="textblock"><g><svg viewBox="0 0 213.1584412271571 55.30346185908073" height="55.30346185908073" width="213.1584412271571"><g transform="matrix(1,0,0,1,0,0)"><svg width="213.1584412271571" viewBox="1.5 -35.35 137.59 35.7" height="55.30346185908073" data-palette-color="#3e373d"><path d="M14.85-33.7L14.85-9.1Q14.85-4.45 12.58-2.23 10.3 0 6.45 0L6.45 0Q3.35 0 1.5-1.05L1.5-1.05 1.5-5.8Q3.55-4.55 5.6-4.55L5.6-4.55Q9.7-4.55 9.7-8.9L9.7-8.9 9.7-33.7 14.85-33.7ZM26.9-3.85L26.9 0 21.95 0 21.95-35.35 26.9-35.35 26.9-21.5Q29.6-25.7 34.55-25.7L34.55-25.7Q39.35-25.7 42.4-22.1 45.45-18.5 45.45-12.55L45.45-12.55Q45.45-7.2 42.55-3.43 39.65 0.35 34.6 0.35 29.55 0.35 26.9-3.85L26.9-3.85ZM26.9-12.85L26.9-12.85Q26.9-8.35 28.9-6.15 30.9-3.95 33.8-3.95L33.8-3.95Q36.6-3.95 38.5-6.33 40.4-8.7 40.4-12.45L40.4-12.45Q40.4-16.75 38.5-19.07 36.6-21.4 33.65-21.4L33.65-21.4Q31.05-21.4 28.97-19.3 26.9-17.2 26.9-12.85ZM56.1-35.35L56.1 0 51.15 0 51.15-35.35 56.1-35.35ZM82.09-5.75L82.09-1.35Q79.29 0.25 74.69 0.25L74.69 0.25Q68.79 0.25 65.29-3.3 61.79-6.85 61.79-12.6L61.79-12.6Q61.79-18.7 64.99-22.18 68.19-25.65 73.14-25.65L73.14-25.65Q77.99-25.65 80.84-22.63 83.69-19.6 83.69-13.9L83.69-13.9Q83.69-12.35 83.39-10.65L83.39-10.65 66.74-10.65Q67.24-7.35 69.54-5.6 71.84-3.85 75.34-3.85L75.34-3.85Q79.39-3.85 82.09-5.75L82.09-5.75ZM73.24-21.6L73.24-21.6Q70.74-21.6 68.94-19.78 67.14-17.95 66.69-14.5L66.69-14.5 78.94-14.5 78.94-15.4Q78.84-18.25 77.39-19.93 75.94-21.6 73.24-21.6ZM110.39-17.15L110.39 0 105.49 0 105.49-16Q105.49-18.65 104.17-20.05 102.84-21.45 100.64-21.45L100.64-21.45Q98.04-21.45 96.19-19.43 94.34-17.4 94.34-13.75L94.34-13.75 94.34 0 89.44 0 89.44-25.35 94.34-25.35 94.34-21Q96.59-25.7 102.24-25.7L102.24-25.7Q105.99-25.7 108.19-23.4 110.39-21.1 110.39-17.15L110.39-17.15ZM120.64-12.45L120.64-12.45Q120.64-8.65 122.51-6.3 124.39-3.95 127.24-3.95L127.24-3.95Q130.14-3.95 132.14-6.15 134.14-8.35 134.14-12.85L134.14-12.85Q134.14-17.2 132.06-19.3 129.99-21.4 127.39-21.4L127.39-21.4Q124.44-21.4 122.54-19.07 120.64-16.75 120.64-12.45ZM139.09-35.35L139.09 0 134.14 0 134.14-3.85Q131.49 0.35 126.39 0.35L126.39 0.35Q121.39 0.35 118.49-3.43 115.59-7.2 115.59-12.55L115.59-12.55Q115.59-18.5 118.64-22.1 121.69-25.7 126.49-25.7L126.49-25.7Q131.44-25.7 134.14-21.5L134.14-21.5 134.14-35.35 139.09-35.35Z" opacity="1" transform="matrix(1,0,0,1,0,0)" fill="#3e373d" class="wordmark-text-0" data-fill-palette-color="quaternary" id="text-0"></path></svg></g></svg></g></svg></g></svg></g><g transform="matrix(1,0,0,1,73.90396462005603,0)"><svg viewBox="0 0 66.41630419318082 76.42938428924957" height="76.42938428924957" width="66.41630419318082"><g><svg xmlns="http://www.w3.org/2000/svg" xmlns:xlink="http://www.w3.org/1999/xlink" version="1.1" x="0" y="0" viewBox="9.97 0 79.947 92" enable-background="new 0 0 100 92.316" xml:space="preserve" width="66.41630419318082" height="76.42938428924957" class="icon-icon-0" data-fill-palette-color="quaternary" id="icon-0"><g fill="#3e373d" data-fill-palette-color="quaternary"><path d="M63.883 35.689c-3.081 0-4.742-1.443-6.522-4.335-1.702 2.892-4.175 4.335-7.416 4.335-3.082 0-5.511-1.443-7.296-4.335-1.701 2.892-3.182 4.335-6.422 4.335-2.84 0-4.943-1.184-6.726-3.801l5.516 45.49h30.15l5.409-45.597C68.796 34.758 67.044 35.689 63.883 35.689z" fill="#3e373d" data-fill-palette-color="quaternary"></path><polygon points="80.047,0 69.524,82.293 30.491,82.293 19.975,0 9.97,0 21.822,92.316 78.192,92.316 89.917,0  " fill="#3e373d" data-fill-palette-color="quaternary"></polygon></g></svg></g></svg></g><g></g></svg></g></svg></g></svg></g><defs></defs></svg><rect width="342.85155851775386" height="342.85155851775386" fill="none" stroke="none" visibility="hidden"></rect></g></svg></g></svg>